<?xml version="1.0" encoding="UTF-8"?>
<svg width="13px" height="12px" viewBox="0 0 13 12" version="1.1" xmlns="http://www.w3.org/2000/svg"
>
    <!-- Generator: Sketch 52 (66869) - http://www.bohemiancoding.com/sketch -->
    <title>Group</title>
    <desc>Created with Sketch.</desc>
    <g id="6.-Кладовая-хранения" stroke="none" stroke-width="1" fill="none" fill-rule="evenodd">
        <g id="Кладовая-хранения-–-Фильтр" transform="translate(-1075.000000, -138.000000)" fill="#989FA7"
           fill-rule="nonzero">
            <g id="Group-11" transform="translate(0.000000, 71.000000)">
                <g id="Group-9" transform="translate(140.000000, 48.000000)">
                    <g id="Group-6">
                        <g id="Group"
                           transform="translate(941.500000, 25.000000) scale(-1, -1) translate(-941.500000, -25.000000) translate(935.000000, 19.000000)">
                            <path d="M0,1.66672414 C0,2.14275862 0.334413793,2.5287931 0.747126437,2.5287931 L12.2528736,2.5287931 C12.6655862,2.5287931 13,2.14275862 13,1.66672414 L13,0.862068966 C13,0.386034483 12.6655862,0 12.2528736,0 L0.747126437,0 C0.334413793,0 0,0.386034483 0,0.862068966 L0,1.66672414 Z"
                                  id="Shape"></path>
                            <path d="M5,5.66655172 C5,6.14275862 5.31410526,6.52862069 5.70175439,6.52862069 L12.2982456,6.52862069 C12.6858947,6.52862069 13,6.14275862 13,5.66655172 L13,4.86206897 C13,4.38586207 12.6858947,4 12.2982456,4 L5.70175439,4 C5.31410526,4 5,4.38586207 5,4.86206897 L5,5.66655172 Z"
                                  id="Shape"></path>
                            <path d="M9,10.6667241 C9,11.1427586 9.33155556,11.5287931 9.74074074,11.5287931 L12.2592593,11.5287931 C12.6684444,11.5287931 13,11.1427586 13,10.6667241 L13,9.86206897 C13,9.38603448 12.6684444,9 12.2592593,9 L9.74074074,9 C9.33155556,9 9,9.38603448 9,9.86206897 L9,10.6667241 Z"
                                  id="Shape"></path>
                        </g>
                    </g>
                </g>
            </g>
        </g>
    </g>
</svg>