<?xml version="1.0" encoding="UTF-8"?>
<svg width="351px" height="58px" viewBox="0 0 351 58" version="1.1" xmlns="http://www.w3.org/2000/svg" xmlns:xlink="http://www.w3.org/1999/xlink">
    <!-- Generator: sketchtool 51.2 (57519) - http://www.bohemiancoding.com/sketch -->
    <title>535EE0FE-2DF0-4B62-9EC7-25AE1D6CA400</title>
    <desc>Created with sketchtool.</desc>
    <defs></defs>
    <g id="Прием-с-магистрали" stroke="none" stroke-width="1" fill="none" fill-rule="evenodd" opacity="0.3">
        <g id="Введен-ШПИ-EMS" transform="translate(-151.000000, -320.000000)">
            <g id="Group-17" transform="translate(140.000000, 304.000000)">
                <g id="Group" transform="translate(11.000000, 16.000000)">
                    <path d="M77.3198741,0.787267385 L74.621797,12.0095 L65.8806703,12.0095 L65.2438196,14.8060177 L73.2034483,14.8060177 L70.3687597,26.6128671 L62.2966275,26.6128671 L61.5111114,29.9859657 L70.1316986,30.0140916 L67.7409974,40.6275994 L48.2919402,40.6275994 L49.4712188,35.8261071 L65.6636991,35.8261071 L66.2061271,33.6202333 L50.0136468,33.6202333 L51.1909165,28.818741 L58.5960631,28.818741 L59.1364821,26.6128671 L51.7313355,26.6128671 L52.9065961,21.8113748 L68.3015063,21.8113748 L68.8439343,19.605501 L53.4510331,19.605501 L54.6283028,14.8060177 L62.0073326,14.8060177 L62.5477516,12.5961258 L55.1687218,12.5961258 L56.3459914,7.79865152 L72.5525347,7.79865152 L73.0929537,5.58875967 L56.8904284,5.58875967 L58.0656891,0.787267385 L77.3198741,0.787267385 Z M99.5152242,0.787267385 L97.3716291,5.58875967 L108.467295,5.58875967 L107.950984,7.79865152 L96.3892317,7.79865152 L94.2496546,12.5961258 L106.78175,12.5961258 L106.160972,14.8060177 L93.2692662,14.8060177 L92.9558634,15.5031381 L92.1261494,0.787267385 L80.6186399,0.787267385 L79.4433792,5.58875967 L89.534549,5.58875967 L89.5626749,7.79865152 L78.9009512,7.79865152 L77.7216726,12.5961258 L89.7716101,12.5961258 L90.0267522,14.8060177 L77.1832626,14.8060177 L76.0039839,19.605501 L82.5372278,19.605501 L82.0389977,21.8113748 L75.4615559,21.8113748 L74.2862953,26.6128671 L80.871773,26.6128671 L80.329345,28.818741 L73.7438673,28.818741 L72.5645886,33.6202333 L79.1299764,33.6202333 L78.5875484,35.8261071 L72.0261786,35.8261071 L70.8468999,40.6275994 L80.6889546,40.6275994 L85.7013912,19.605501 L96.1702515,19.605501 L95.1275844,21.8113748 L85.5165638,21.8113748 L85.2553948,26.6128671 L92.8252789,26.6128671 L91.8830613,28.818741 L85.1368642,28.818741 L84.8716772,33.6202333 L89.6028548,33.6202333 L88.7068441,35.8261071 L84.7511377,35.8261071 L84.4879596,40.6275994 L89.7033044,40.6275994 L97.7312388,22.6672057 L96.6865626,26.6128671 L103.223825,26.6128671 L102.639208,28.818741 L96.0999368,28.818741 L94.8302535,33.6202333 L101.566406,33.6202333 L100.977771,35.8261071 L94.2476456,35.8261071 L92.9759533,40.6275994 L103.002835,40.6275994 L112.921232,0.787267385 L99.5152242,0.787267385 Z M104.551769,21.8113748 L98.1471002,21.8113748 L99.0812818,19.605501 L105.015846,19.605501 L104.551769,21.8113748 Z M133.12567,0.787267385 L137.211961,7.32854725 L135.863927,12.5961258 L125.851108,12.5961258 L126.208709,11.0210756 L123.900376,11.0492015 L122.805475,15.1997802 L128.424628,15.2178612 L133.310498,22.6009089 L130.441656,34.8015209 L124.061096,40.6275994 L111.346182,40.6275994 L108.073533,35.8261071 L124.635668,35.8261071 L127.458302,33.6202333 L107.975092,33.6202333 L109.150353,28.818741 L119.414296,28.818741 L118.954236,31.0065339 L121.266587,30.988453 L121.712583,28.818741 L128.677761,28.818741 L129.159919,26.6128671 L115.563057,26.6128671 L111.275867,21.8113748 L129.933381,21.8113748 L128.42061,19.605501 L111.378325,19.605501 L112.581712,14.8060177 L119.599123,14.8060177 L120.149587,12.5961258 L113.136194,12.5961258 L114.339581,7.79865152 L133.772566,7.79865152 L132.452658,5.58875967 L115.675561,5.58875967 L121.437351,0.787267385 L133.12567,0.787267385 Z" id="Fill-9" fill="#0055A6"></path>
                    <path d="M148.374928,25.8052521 C148.561765,25.0679518 148.81088,24.1779681 149.694837,23.4929016 C150.482362,22.8821679 151.346228,22.7817182 152.007187,22.7817182 L160.438929,22.7817182 C161.684504,22.7817182 163.187231,22.856051 163.840153,24.4090022 C164.370527,25.6284607 164.069179,27.0247106 163.743722,28.3205108 C163.416256,29.616311 163.012448,31.0145699 161.969781,32.334478 C161.29476,33.1983448 160.187805,34.1646703 158.156713,34.1646703 L155.87048,34.1646703 L155.838336,34.2912368 L161.013501,40.5653206 L156.798634,40.5653206 L152.408986,34.7995119 C152.14179,34.4439202 151.820351,33.8090786 151.948926,33.2987945 L152.051385,32.8949869 C152.230185,32.1817946 152.891144,31.6735194 153.85546,31.6735194 L157.208469,31.6735194 C157.793086,31.6735194 158.598692,31.5971777 159.235542,30.8880033 C159.731764,30.3274944 160.103427,29.0578111 160.256111,28.4470773 C160.609693,27.0488185 160.507235,26.3376351 160.240039,25.9840524 C159.842258,25.4496604 159.030625,25.4496604 158.498242,25.4496604 L153.061908,25.4496604 C152.706316,25.4496604 152.445147,25.4757773 152.103619,25.7289104 C151.669676,26.0342773 151.587308,26.363752 151.498912,26.7193437 L148.009292,40.5653206 L144.656283,40.5653206 L148.374928,25.8052521 Z" id="Fill-10" fill="#0055A6"></path>
                    <path d="M174.726884,36.95717 C175.763524,36.0671862 176.121125,34.7472781 176.344123,33.8572944 L179.134614,22.7797093 L182.485614,22.7797093 L179.582619,34.3153447 C179.204929,35.8140532 178.580132,37.489553 176.886551,38.8616949 C174.648534,40.6918872 171.862061,40.7682289 170.236786,40.7682289 C168.611511,40.7682289 165.8612,40.6918872 164.543301,38.8616949 C163.542822,37.489553 163.763812,35.8140532 164.139493,34.3153447 L167.046506,22.7797093 L170.397505,22.7797093 L167.609023,33.8572944 C167.359908,34.8477277 167.082667,36.0430783 167.691392,36.95717 C168.376459,37.9737202 169.867131,38.1002867 170.907789,38.1002867 C171.874115,38.1002867 173.555642,37.9737202 174.726884,36.95717" id="Fill-11" fill="#0055A6"></path>
                    <path d="M180.613233,37.8973785 L190.467341,37.8973785 C192.068508,37.8973785 192.476334,36.5754614 192.629017,35.9667366 C192.807818,35.2555532 192.835943,34.4419112 191.40755,33.959753 L184.954666,31.7498612 C184.693496,31.6735194 183.672928,31.2918109 183.180725,30.429953 C182.610171,29.4636276 182.859286,28.0653688 183.11041,27.0749354 C183.377606,26.0081603 183.831639,24.7123601 185.083241,23.7721516 C186.216313,22.9082848 187.389565,22.7797093 188.25544,22.7797093 L198.489249,22.7797093 L197.818245,25.4476514 L188.725545,25.4476514 C188.269503,25.4476514 187.727075,25.4737683 187.224827,25.8534679 C186.692444,26.2612934 186.507617,26.8961351 186.423239,27.2256099 C186.226358,28.0151439 186.26252,28.7765521 187.568365,29.2346024 L193.553154,31.2918109 C194.650064,31.6735194 195.367274,32.055228 195.773091,32.5614942 C196.582715,33.5780444 196.287393,35.1530946 196.076448,35.9908445 C195.79519,37.1098534 195.329103,38.3554288 194.354742,39.2956373 C193.179481,40.4387541 192.030337,40.5653206 190.863113,40.5653206 L179.942229,40.5653206 L180.613233,37.8973785 Z" id="Fill-12" fill="#0055A6"></path>
                    <path d="M196.996567,37.8973785 L206.848667,37.8973785 C208.449834,37.8973785 208.859668,36.5754614 209.014361,35.9667366 C209.193161,35.2555532 209.219278,34.4419112 207.790884,33.959753 L201.338,31.7498612 C201.07884,31.6735194 200.056263,31.2918109 199.56406,30.429953 C198.993506,29.4636276 199.24463,28.0653688 199.493745,27.0749354 C199.760941,26.0081603 200.214973,24.7123601 201.468585,23.7721516 C202.601656,22.9082848 203.774908,22.7797093 204.638775,22.7797093 L214.872583,22.7797093 L214.20158,25.4476514 L205.108879,25.4476514 C204.652838,25.4476514 204.112419,25.4737683 203.610171,25.8534679 C203.075779,26.2612934 202.890951,26.8961351 202.808583,27.2256099 C202.607683,28.0151439 202.645854,28.7765521 203.951699,29.2346024 L209.936488,31.2918109 C211.033398,31.6735194 211.750609,32.055228 212.156425,32.5614942 C212.968058,33.5780444 212.672736,35.1530946 212.461792,35.9908445 C212.178524,37.1098534 211.712438,38.3554288 210.740085,39.2956373 C209.564825,40.4387541 208.413672,40.5653206 207.246447,40.5653206 L196.325564,40.5653206 L196.996567,37.8973785 Z" id="Fill-13" fill="#0055A6"></path>
                    <polygon id="Fill-14" fill="#0055A6" points="213.012256 40.5653206 217.4903 22.7817182 220.843309 22.7817182 216.365265 40.5653206"></polygon>
                    <path d="M228.035503,24.5837846 C229.048035,23.0830671 229.859668,22.574792 231.460835,22.574792 C232.983651,22.574792 233.618493,23.0830671 233.877653,24.5837846 L236.55564,40.5633117 L233.027849,40.5633117 L232.32872,36.0671862 L223.77242,36.0671862 L220.837282,40.5633117 L217.305473,40.5633117 L228.035503,24.5837846 Z M225.236976,33.6784941 L232.067551,33.6784941 L230.996758,26.4380848 C230.958587,26.1829427 230.904344,25.7007845 230.67331,25.7007845 C230.446294,25.7007845 230.144945,26.1829427 229.980207,26.4380848 L225.236976,33.6784941 Z" id="Fill-15" fill="#0055A6"></path>
                    <path d="M255.096633,38.2529702 C254.6426,40.0570455 253.270458,40.7682289 251.821975,40.7682289 C250.753191,40.7682289 249.802937,40.5150958 249.328815,39.2695204 L244.818627,27.4305271 C244.659916,27.0488185 244.571521,26.9985937 244.521296,26.9985937 C244.39272,26.9985937 244.125524,27.1512771 244.037129,27.5068688 L240.748408,40.5653206 L237.495849,40.5653206 L241.419411,24.9916101 C241.803129,23.4667847 243.070803,22.576801 244.746303,22.576801 C246.321353,22.576801 246.922042,23.2136517 247.211337,23.9750598 L251.755678,35.8903949 C251.838047,36.0671862 251.823984,36.3223283 252.053009,36.3223283 C252.332259,36.3223283 252.41061,36.0189704 252.440745,35.8903949 L255.741519,22.7817182 L258.992069,22.7817182 L255.096633,38.2529702 Z" id="Fill-16" fill="#0055A6"></path>
                    <path d="M262.897551,40.5653206 L266.704592,25.4476514 C266.871338,24.7887018 267.050139,24.0755095 267.813556,23.4667847 C268.544829,22.8821679 269.382579,22.7817182 269.993313,22.7817182 L278.449163,22.7817182 C279.389371,22.7817182 280.88808,22.7817182 281.711767,23.8484933 C282.635903,25.015718 282.256204,27.0227016 281.878513,28.5214101 C281.514885,29.9698937 280.78763,32.2581363 279.102085,33.4012531 C278.308533,33.9336361 277.207605,34.2651199 276.164938,34.2651199 L267.835655,34.2651199 L266.25056,40.5653206 L262.897551,40.5653206 Z M274.883201,31.5971777 C275.620501,31.5971777 276.482359,31.5971777 277.233722,30.9362192 C277.920798,30.3254854 278.258308,29.1823686 278.431082,28.4973022 C278.629972,27.7097771 278.822835,26.640993 278.410992,26.0583852 C277.973031,25.4737683 277.040859,25.4476514 276.482359,25.4476514 L271.072142,25.4476514 C270.845126,25.4476514 270.545786,25.4235435 270.226356,25.6766766 C269.941079,25.9057017 269.864737,26.2110686 269.788396,26.5144265 L268.508667,31.5971777 L274.883201,31.5971777 Z" id="Fill-17" fill="#0055A6"></path>
                    <path d="M300.684693,24.4572181 C302.090987,26.2351765 301.48829,29.3350521 300.899655,31.6735194 C300.309011,34.0099778 299.326614,37.1098534 297.050425,38.8898208 C294.645661,40.7682289 291.547794,40.7682289 289.490586,40.7682289 C287.383153,40.7682289 284.359619,40.7682289 282.876982,38.8898208 C281.320013,36.9069451 282.131646,33.680503 282.637912,31.6735194 C283.244628,29.2587104 284.120549,26.2854013 286.51125,24.4572181 C288.966239,22.576801 291.913431,22.576801 294.073098,22.576801 C296.178522,22.576801 299.202056,22.576801 300.684693,24.4572181 M285.936678,36.6276952 C286.637816,37.9737202 288.283181,38.1002867 290.135473,38.1002867 C291.965665,38.1002867 293.699425,37.9737202 295.10572,36.6276952 C295.875164,35.8883859 296.72095,34.5443699 297.444188,31.6735194 C298.219659,28.5997608 297.990634,27.3782933 297.606916,26.6932268 C296.891715,25.3974266 295.176035,25.2447432 293.373969,25.2447432 C291.519668,25.2447432 289.805998,25.3974266 288.437874,26.6932268 C287.535836,27.5570936 286.778446,28.9533435 286.09137,31.6735194 C285.364115,34.5704868 285.538897,35.8883859 285.936678,36.6276952" id="Fill-18" fill="#0055A6"></path>
                    <path d="M300.933808,37.8973785 L310.785907,37.8973785 C312.387074,37.8973785 312.796909,36.5754614 312.951601,35.9667366 C313.130402,35.2555532 313.156519,34.4419112 311.728125,33.959753 L305.275241,31.7498612 C305.016081,31.6735194 303.993503,31.2918109 303.5013,30.429953 C302.928737,29.4636276 303.18187,28.0653688 303.430985,27.0749354 C303.698181,26.0081603 304.152214,24.7123601 305.405825,23.7721516 C306.536888,22.9082848 307.712149,22.7797093 308.574006,22.7797093 L318.809824,22.7797093 L318.13882,25.4476514 L309.04612,25.4476514 C308.588069,25.4476514 308.049659,25.4737683 307.547411,25.8534679 C307.013019,26.2612934 306.828192,26.8961351 306.743814,27.2256099 C306.544924,28.0151439 306.583095,28.7765521 307.890949,29.2346024 L313.875738,31.2918109 C314.970639,31.6735194 315.687849,32.055228 316.095675,32.5614942 C316.905299,33.5780444 316.609977,35.1530946 316.397024,35.9908445 C316.115765,37.1098534 315.649678,38.3554288 314.677326,39.2956373 C313.502065,40.4387541 312.350913,40.5653206 311.183688,40.5653206 L300.262804,40.5653206 L300.933808,37.8973785 Z" id="Fill-19" fill="#0055A6"></path>
                    <polygon id="Fill-20" fill="#0055A6" points="322.562622 40.5653206 326.369663 25.4476514 319.43462 25.4476514 320.107633 22.7817182 337.352825 22.7817182 336.681822 25.4476514 329.722671 25.4476514 325.913622 40.5653206"></polygon>
                    <polygon id="Fill-21" fill="#FFB369" points="41.8878745 40.6336264 43.4006459 40.6336264 44.5718886 35.8261071 36.8995459 35.8261071"></polygon>
                    <polygon id="Fill-22" fill="#FFB369" points="141.47203 14.8060177 140.4153 19.605501 346.184357 19.605501 347.25515 14.8060177"></polygon>
                    <polygon id="Fill-23" fill="#FFB369" points="144.557843 0.787267385 143.501112 5.58875967 349.316376 5.58875967 350.389178 0.787267385"></polygon>
                    <polygon id="Fill-24" fill="#FFB369" points="143.016945 7.79664253 141.956197 12.5961258 347.751371 12.5961258 348.820155 7.79664253"></polygon>
                    <polygon id="Fill-25" fill="#FFB369" points="19.8333547 19.603492 48.5398498 19.603492 49.6910026 14.8040087 14.869134 14.8040087"></polygon>
                    <polygon id="Fill-26" fill="#FFB369" points="34.5223049 33.6162153 45.1277768 33.6162153 46.2789296 28.818741 29.5580843 28.818741"></polygon>
                    <polygon id="Fill-27" fill="#FFB369" points="5.14862341 5.58675068 51.9521238 5.58675068 53.1052855 0.785258393 0.184402719 0.785258393"></polygon>
                    <polygon id="Fill-28" fill="#FFB369" points="27.1752182 26.6108581 46.8312016 26.6108581 47.9863724 21.8093658 22.2130065 21.8093658"></polygon>
                    <polygon id="Fill-29" fill="#FFB369" points="12.4884778 12.5981348 50.2454845 12.5981348 51.3986463 7.79865152 7.52626614 7.79865152"></polygon>
                    <text id="8-800-200-50-55-•-ww" font-family="Roboto-Bold, Roboto" font-size="12.0539555" font-weight="bold" fill="#0055A6">
                        <tspan x="47.4280733" y="54.403776">8 800 200-50-55 • www.emspost.ru</tspan>
                    </text>
                    <text id="-" font-family="Roboto-Bold, Roboto" font-size="12.0539555" font-weight="bold"></text>
                    <text id="--" font-family="Roboto-Bold, Roboto" font-size="12.0539555" font-weight="bold" letter-spacing="0.04017985"></text>
                </g>
            </g>
        </g>
    </g>
</svg>