<?xml version="1.0" encoding="UTF-8"?>
<svg width="16px" height="16px" viewBox="0 0 16 16" version="1.1" xmlns="http://www.w3.org/2000/svg" xmlns:xlink="http://www.w3.org/1999/xlink">
    <!-- Generator: sketchtool 51.2 (57519) - http://www.bohemiancoding.com/sketch -->
    <title>CFFE87AF-5D8E-4238-BD4B-16490F59FFE7</title>
    <desc>Created with sketchtool.</desc>
    <defs></defs>
    <g id="Прием-с-магистрали" stroke="none" stroke-width="1" fill="none" fill-rule="evenodd">
        <g id="Введен-ШПИ-EMS" transform="translate(-972.000000, -28.000000)">
            <g id="Group-4" transform="translate(793.000000, 21.000000)">
                <g id="Group-6" transform="translate(179.000000, 7.000000)">
                    <circle id="circle" stroke="#0055A6" stroke-width="1.3" cx="8" cy="8" r="7.35"></circle>
                    <path d="M7.18604651,9.6344086 C7.18604651,9.37992704 7.20251922,9.15860309 7.23546512,8.97043011 C7.26841102,8.78225712 7.32267404,8.61021583 7.39825581,8.45430108 C7.47383759,8.29838632 7.57170483,8.15053833 7.69186047,8.01075269 C7.8120161,7.87096704 7.95930145,7.72222301 8.13372093,7.56451613 C8.26550453,7.44623597 8.38856532,7.33422992 8.50290698,7.22849462 C8.61724863,7.12275933 8.71802282,7.01433747 8.80523256,6.90322581 C8.8924423,6.79211414 8.96124006,6.67383575 9.01162791,6.5483871 C9.06201576,6.42293844 9.0872093,6.28315489 9.0872093,6.12903226 C9.0872093,5.79211301 8.99709392,5.53494712 8.81686047,5.35752688 C8.63662701,5.18010664 8.37209477,5.09139785 8.02325581,5.09139785 C7.88372023,5.09139785 7.74806267,5.10931882 7.61627907,5.14516129 C7.48449547,5.18100376 7.36627959,5.23835086 7.26162791,5.3172043 C7.15697622,5.39605774 7.07267474,5.49641516 7.00872093,5.61827957 C6.94476712,5.74014398 6.9127907,5.88709591 6.9127907,6.05913978 L5.5,6.05913978 C5.50387599,5.72222054 5.57073578,5.42562852 5.7005814,5.16935484 C5.83042701,4.91308116 6.0087198,4.69802954 6.23546512,4.52419355 C6.46221044,4.35035755 6.72771166,4.21953449 7.03197674,4.13172043 C7.33624183,4.04390637 7.66666488,4 8.02325581,4 C8.41473064,4 8.76356436,4.04659452 9.06976744,4.13978495 C9.37597052,4.23297538 9.63565785,4.36917473 9.84883721,4.5483871 C10.0620166,4.72759946 10.2238367,4.94623527 10.3343023,5.20430108 C10.444768,5.46236688 10.5,5.75447866 10.5,6.08064516 C10.5,6.31720548 10.4593027,6.53763339 10.377907,6.74193548 C10.2965112,6.94623758 10.1879852,7.13799194 10.0523256,7.3172043 C9.91666599,7.49641667 9.76162878,7.66845796 9.5872093,7.83333333 C9.41278983,7.99820871 9.23255907,8.16128952 9.04651163,8.32258065 C8.83333227,8.50179301 8.69089183,8.69802761 8.61918605,8.91129032 C8.54748026,9.12455304 8.50968994,9.36559005 8.50581395,9.6344086 L7.18604651,9.6344086 Z M7.0872093,11.3064516 C7.0872093,11.2060927 7.10465099,11.1129037 7.13953488,11.0268817 C7.17441878,10.9408598 7.22577485,10.8655917 7.29360465,10.8010753 C7.36143445,10.7365588 7.44476695,10.6863801 7.54360465,10.6505376 C7.64244235,10.6146952 7.75581331,10.5967742 7.88372093,10.5967742 C8.01162855,10.5967742 8.12499951,10.6146952 8.22383721,10.6505376 C8.32267491,10.6863801 8.40600741,10.7365588 8.47383721,10.8010753 C8.54166701,10.8655917 8.59399206,10.9408598 8.63081395,11.0268817 C8.66763584,11.1129037 8.68604651,11.2060927 8.68604651,11.3064516 C8.68604651,11.5035852 8.61627977,11.6684581 8.47674419,11.8010753 C8.3372086,11.9336924 8.13953616,12 7.88372093,12 C7.6279057,12 7.43120224,11.9336924 7.29360465,11.8010753 C7.15600706,11.6684581 7.0872093,11.5035852 7.0872093,11.3064516 L7.0872093,11.3064516 Z" id="?" fill="#0055A6"></path>
                </g>
            </g>
        </g>
    </g>
</svg>