<?xml version="1.0" encoding="UTF-8"?>
<svg width="18px" height="17px" viewBox="0 0 18 17" version="1.1" xmlns="http://www.w3.org/2000/svg">
    <!-- Generator: sketchtool 52 (66869) - http://www.bohemiancoding.com/sketch -->
    <title>727C9DD4-92AF-4610-B6F5-CDA856343449</title>
    <desc>Created with sketchtool.</desc>
    <g id="Системные-сообщения" stroke="none" stroke-width="1" fill="none" fill-rule="evenodd">
        <g id="Модальное-окно" transform="translate(-340.000000, -212.000000)" fill="#F88901">
            <g id="Group-Copy-11" transform="translate(316.000000, 195.000000)">
                <g id="Group-18">
                    <g id="Group-5" transform="translate(24.000000, 14.000000)">
                        <g id="Fill-689-+-Fill-690-+-Fill-691-Copy" transform="translate(0.000000, 3.000000)">
                            <path d="M8,7.5 L8,10.5 C8,10.776 8.224,11 8.5,11 L9.5,11 C9.776,11 10,10.776 10,10.5 L10,7.5 C10,7.224 9.776,7 9.5,7 L8.5,7 C8.224,7 8,7.224 8,7.5" id="Fill-689"></path>
                            <path d="M9.5,12 L8.5,12 C8.224,12 8,12.224 8,12.5 L8,13.5 C8,13.776 8.224,14 8.5,14 L9.5,14 C9.776,14 10,13.776 10,13.5 L10,12.5 C10,12.224 9.776,12 9.5,12" id="Fill-690"></path>
                            <path d="M17.883,15.529 L9.883,0.529 C9.535,-0.123 8.465,-0.123 8.117,0.529 L0.117,15.529 C-0.048,15.839 -0.038,16.213 0.143,16.515 C0.323,16.815 0.648,17 1,17 L17,17 C17.352,17 17.677,16.815 17.857,16.515 C18.038,16.213 18.048,15.839 17.883,15.529 L17.883,15.529 Z M2.667,15 L9,3.125 L15.333,15 L2.667,15 L2.667,15 Z" id="Fill-691"></path>
                        </g>
                    </g>
                </g>
            </g>
        </g>
    </g>
</svg>