<?xml version="1.0"?>
<svg xmlns="http://www.w3.org/2000/svg" version="1.1" viewBox="0 0 224 224"
     width="90px" height="90px">
    <g fill="none" fill-rule="nonzero" stroke="none" stroke-width="1" stroke-linecap="butt" stroke-linejoin="miter"
       stroke-miterlimit="10" stroke-dasharray="" stroke-dashoffset="0" font-family="none" font-weight="none"
       font-size="none" text-anchor="none" style="mix-blend-mode: normal">
        <path d="M0,224v-224h224v224z" fill="none"/>
        <path d="M35.1456,217.28c-15.69903,0 -28.4256,-12.72657 -28.4256,-28.4256v-153.7088c0,-15.69903 12.72657,-28.4256 28.4256,-28.4256h153.7088c15.69903,0 28.4256,12.72657 28.4256,28.4256v153.7088c0,15.69903 -12.72657,28.4256 -28.4256,28.4256z"
              fill="#f7f7f7"/>
        <g id="original-icon" fill="#d5d5d5">
            <path d="M64.21333,46.29333c-1.52843,0 -3.05853,0.58221 -4.22333,1.75l-11.94667,11.94667c-2.33557,2.33557 -2.33557,6.11707 0,8.44667l43.56334,43.56333l-43.56334,43.56333c-2.33557,2.33557 -2.33557,6.11706 0,8.44666l11.94667,11.94667c2.33557,2.33557 6.11707,2.33557 8.44667,0l43.56333,-43.56333l43.56333,43.56333c2.3296,2.33557 6.11706,2.33557 8.44666,0l11.94667,-11.94667c2.33557,-2.33557 2.33557,-6.11706 0,-8.44666l-43.56333,-43.56333l43.56333,-43.56333c2.33557,-2.3296 2.33557,-6.11707 0,-8.44667l-11.94667,-11.94667c-2.33557,-2.33557 -6.11706,-2.33557 -8.44666,0l-43.56333,43.56334l-43.56333,-43.56334c-1.16779,-1.16779 -2.69491,-1.75 -4.22333,-1.75z"/>
        </g>
    </g>
</svg>
