<svg xmlns="http://www.w3.org/2000/svg" width="18" height="18" viewBox="0 0 18 18">
    <path fill="#FFF" fill-rule="evenodd"
          d="M17.85 16.394l-4.657-4.692a.52.52 0 0 1-.057-.654c1.91-2.929 1.464-6.957-1.353-9.363C9.072-.629 4.946-.55 2.319 1.861-.695 4.63-.77 9.34 2.092 12.204c2.442 2.444 6.221 2.741 8.997.905a.518.518 0 0 1 .657.057l4.647 4.682a.514.514 0 0 0 .73.001l.726-.728c.2-.2.201-.525.001-.727zM3.547 10.75a5.11 5.11 0 0 1 0-7.214 5.099 5.099 0 0 1 7.207 0 5.11 5.11 0 0 1 0 7.214 5.1 5.1 0 0 1-7.207 0z"/>
</svg>
