<?xml version="1.0" encoding="UTF-8"?>
<svg width="19px" height="18px" viewBox="0 0 19 18" version="1.1" xmlns="http://www.w3.org/2000/svg"
>
    <!-- Generator: sketchtool 51.2 (57519) - http://www.bohemiancoding.com/sketch -->
    <title>2BB89A64-A002-4AEF-A0D1-0D890B4F0E50</title>
    <desc>Created with sketchtool.</desc>
    <defs></defs>
    <g id="Прием-с-магистрали" stroke="none" stroke-width="1" fill="none" fill-rule="evenodd">
        <g id="Введен-ШПИ-EMS" transform="translate(-619.000000, -262.000000)" fill="#0055A6">
            <path d="M634.570358,266.77033 L621.74771,266.77033 C620.227311,266.77033 619,268.048779 619,269.632528 L619,275.356925 L622.663614,275.356925 L622.663614,279.173189 L633.654455,279.173189 L633.654455,275.356925 L637.318068,275.356925 L637.318068,269.632528 C637.318068,268.048779 636.090758,266.77033 634.570358,266.77033 L634.570358,266.77033 Z M631.822648,277.265057 L624.49542,277.265057 L624.49542,272.494727 L631.822648,272.494727 L631.822648,277.265057 L631.822648,277.265057 Z M634.570358,270.586595 C634.066611,270.586595 633.654455,270.157265 633.654455,269.632528 C633.654455,269.107792 634.066611,268.678462 634.570358,268.678462 C635.074105,268.678462 635.486261,269.107792 635.486261,269.632528 C635.486261,270.157265 635.074105,270.586595 634.570358,270.586595 L634.570358,270.586595 Z M633.654455,262 L622.663614,262 L622.663614,265.816264 L633.654455,265.816264 L633.654455,262 L633.654455,262 Z"
                  id="Icon"></path>
        </g>
    </g>
</svg>