<?xml version="1.0" encoding="UTF-8" standalone="no"?>
<!--
  - Copyright (c) 2021. Prototype
  -->

<svg width="20px" height="23px" viewBox="0 0 20 23" version="1.1" xmlns="http://www.w3.org/2000/svg"
     xmlns:sketch="http://www.bohemiancoding.com/sketch/ns">
  <!-- Generator: Sketch 3.3.2 (12043) - http://www.bohemiancoding.com/sketch -->
  <title>Group Copy 16</title>
  <desc>Created with Sketch.</desc>
  <defs></defs>
  <g id="Page-1" stroke="none" stroke-width="1" fill="none" fill-rule="evenodd" sketch:type="MSPage">
    <g id="документы" sketch:type="MSArtboardGroup" transform="translate(-24.000000, -958.000000)" fill="#0055A6">
      <g id="Group-Copy-16" sketch:type="MSLayerGroup" transform="translate(24.000000, 958.250000)">
        <path
          d="M15,0 L1.42857143,0 C0.638571429,0 0,0.62859375 0,1.40625 L0,21.09375 C0,21.8714062 0.638571429,22.5 1.42857143,22.5 L18.5714286,22.5 C19.3614286,22.5 20,21.8714062 20,21.09375 L20,4.921875 C20,4.53375 19.7742857,3.9965625 19.4957143,3.7209375 L16.2185714,0.4978125 C15.94,0.2221875 15.3942857,0 15,0 L15,0 Z M2.85714286,19.6875 L2.85714286,2.8125 L12.8571429,2.8125 L12.8571429,6.328125 C12.8571429,6.71625 13.1771429,7.03125 13.5714286,7.03125 L17.1428571,7.03125 L17.1428571,19.6875 L2.85714286,19.6875 L2.85714286,19.6875 Z"
          id="Fill-1055" sketch:type="MSShapeGroup"></path>
        <path
          d="M15,8.4375 L5,8.4375 C4.60571429,8.4375 4.28571429,8.7525 4.28571429,9.140625 L4.28571429,10.546875 C4.28571429,10.935 4.60571429,11.25 5,11.25 L15,11.25 C15.3942857,11.25 15.7142857,10.935 15.7142857,10.546875 L15.7142857,9.140625 C15.7142857,8.7525 15.3942857,8.4375 15,8.4375"
          id="Fill-1056" sketch:type="MSShapeGroup"></path>
        <path
          d="M10.7142857,4.21875 L5,4.21875 C4.60571429,4.21875 4.28571429,4.53375 4.28571429,4.921875 L4.28571429,6.328125 C4.28571429,6.71625 4.60571429,7.03125 5,7.03125 L10.7142857,7.03125 C11.1085714,7.03125 11.4285714,6.71625 11.4285714,6.328125 L11.4285714,4.921875 C11.4285714,4.53375 11.1085714,4.21875 10.7142857,4.21875"
          id="Fill-1057" sketch:type="MSShapeGroup"></path>
      </g>
    </g>
  </g>
</svg>
