<?xml version="1.0" encoding="UTF-8" standalone="no"?>
<!--
  - Copyright (c) 2021. Prototype
  -->

<svg width="94px" height="95px" viewBox="0 0 94 95" version="1.1" xmlns="http://www.w3.org/2000/svg"
     xmlns:sketch="http://www.bohemiancoding.com/sketch/ns">
  <!-- Generator: Sketch 3.3.2 (12043) - http://www.bohemiancoding.com/sketch -->
  <title>Imported Layers 2 Copy 2</title>
  <desc>Created with Sketch.</desc>
  <defs></defs>
  <g id="Page-1" stroke="none" stroke-width="1" fill="none" fill-rule="evenodd" sketch:type="MSPage">
    <g id="отделения" sketch:type="MSArtboardGroup" transform="translate(-273.000000, -1111.000000)">
      <g id="Check-Label-21-Copy-2-+-Imported-Layers-2-Copy-2" sketch:type="MSLayerGroup" transform="translate(76.000000, 1108.000000)">
        <g id="Imported-Layers-2-Copy-2" transform="translate(196.500000, 0.000000)" sketch:type="MSShapeGroup">
          <path
            d="M93.6081746,50.3469355 C93.6081746,24.4839516 72.9750794,3.51959677 47.5256349,3.51959677 C22.0761905,3.51959677 1.44460317,24.4839516 1.44460317,50.3469355 C1.44460317,76.2068548 22.0761905,97.1696774 47.5256349,97.1696774 C54.7576984,97.1696774 61.5976984,95.4734677 67.688254,92.4564516 L67.5766667,92.5698387 L87.5749206,97.8362097 L83.0646825,80.1554839 C89.6513492,72.0575 93.6081746,61.6718548 93.6081746,50.3469355"
            id="Fill-1" fill="#FFCD00"></path>
          <path
            d="M35.0173016,49.7845968 C35.0173016,54.1821774 31.5098413,57.7462097 27.1835714,57.7462097 C22.8557937,57.7462097 19.3483333,54.1821774 19.3483333,49.7845968 C19.3483333,45.3870161 22.8557937,41.8229839 27.1835714,41.8229839 C31.5098413,41.8229839 35.0173016,45.3870161 35.0173016,49.7845968"
            id="Fill-2" fill="#FFFFFF"></path>
          <path
            d="M55.3246825,49.7845968 C55.3246825,54.1821774 51.8172222,57.7462097 47.4894444,57.7462097 C43.1616667,57.7462097 39.6542063,54.1821774 39.6542063,49.7845968 C39.6542063,45.3870161 43.1616667,41.8229839 47.4894444,41.8229839 C51.8172222,41.8229839 55.3246825,45.3870161 55.3246825,49.7845968"
            id="Fill-3" fill="#FFFFFF"></path>
          <path
            d="M75.6305556,49.7845968 C75.6305556,54.1821774 72.1215873,57.7462097 67.7953175,57.7462097 C63.4690476,57.7462097 59.9600794,54.1821774 59.9600794,49.7845968 C59.9600794,45.3870161 63.4690476,41.8229839 67.7953175,41.8229839 C72.1215873,41.8229839 75.6305556,45.3870161 75.6305556,49.7845968"
            id="Fill-4" fill="#FFFFFF"></path>
        </g>
      </g>
    </g>
  </g>
</svg>
