<?xml version="1.0" encoding="UTF-8" standalone="no"?>
<!--
  - Copyright (c) 2021. Prototype
  -->

<svg width="238px" height="34px" viewBox="0 0 238 34" version="1.1" xmlns="http://www.w3.org/2000/svg"
     xmlns:sketch="http://www.bohemiancoding.com/sketch/ns">
  <!-- Generator: Sketch 3.3.2 (12043) - http://www.bohemiancoding.com/sketch -->
  <title>ПОЧТА 2</title>
  <desc>Created with Sketch.</desc>
  <defs></defs>
  <g id="Page-1" stroke="none" stroke-width="1" fill="none" fill-rule="evenodd" sketch:type="MSPage">
    <g id="главная-copy-5" sketch:type="MSArtboardGroup" transform="translate(-25.000000, -171.000000)" fill="#0055A6">
      <g id="Group" sketch:type="MSLayerGroup" transform="translate(-2.000000, 5.000000)">
        <path
          d="M27,198.817962 L27,167.652221 L44.2893834,167.652221 L44.2893834,198.817962 L39.4330414,198.817962 L39.4330414,172.174226 L31.8764928,172.174226 L31.8764928,198.817962 L27,198.817962 Z M57.4357629,166.951629 C54.6012034,166.951629 52.3712042,168.430642 50.7456985,171.388713 C49.1201928,174.375091 48.3074521,178.288461 48.3074521,183.128941 C48.3074521,188.139263 49.0933253,192.123399 50.6650953,195.08147 C52.2099974,198.039541 54.466864,199.518555 57.4357629,199.518555 C60.4583975,199.518555 62.822734,197.968775 64.5288433,194.86917 C66.154349,191.911098 66.9670896,187.983575 66.9670896,183.086481 C66.9670896,178.246001 66.1274815,174.346784 64.4482401,171.388713 C62.7689986,168.430642 60.4315296,166.951629 57.4357629,166.951629 L57.4357629,166.951629 Z M52.9421353,183.171401 C52.9421353,179.746266 53.3249966,176.965155 54.0907307,174.827984 C54.8295969,172.67666 55.9445965,171.601014 57.4357629,171.601014 C59.0881365,171.601014 60.2837384,172.690813 61.0226047,174.870444 C61.6808673,176.78116 62.0099937,179.519812 62.0099937,183.086481 C62.0099937,186.52577 61.6271324,189.349341 60.8613983,191.557279 C60.0956642,193.765217 58.9537972,194.86917 57.4357629,194.86917 C55.9714644,194.86917 54.8564648,193.751064 54.0907307,191.514819 C53.3249966,189.278573 52.9421353,186.497462 52.9421353,183.171401 L52.9421353,183.171401 Z M81.5441757,167.652221 L86.4206685,167.652221 L86.4206685,198.817962 L81.5441757,198.817962 L81.5441757,183.468622 L77.1311513,183.468622 C75.035458,183.468622 73.2622056,182.789267 71.811341,181.430536 C70.3201746,180.100111 69.5746026,178.430029 69.5746026,176.420239 L69.5746026,167.652221 L74.4107937,167.652221 L74.4107937,175.825797 C74.4107937,176.660851 74.6526009,177.326053 75.1362224,177.821424 C75.807919,178.486636 76.8154487,178.819237 78.1588419,178.819237 L81.5441757,178.819237 L81.5441757,167.652221 Z M98.9625241,198.817962 L94.1061821,198.817962 L94.1061821,172.259146 L89.4714989,172.259146 L89.4714989,167.652221 L103.637509,167.652221 L103.637509,172.259146 L98.9625241,172.259146 L98.9625241,198.817962 Z M107.393617,167.652221 L115.272579,167.652221 C117.596649,167.652221 119.430353,168.211274 120.773746,169.329396 C122.452988,170.730588 123.292596,172.938493 123.292596,175.953178 L125.811445,198.817962 L120.934952,198.817962 L119.403492,183.298782 L111.76634,183.298782 L111.242419,198.817962 L106.365927,198.817962 L107.393617,167.652221 Z M111.846943,178.734317 L118.83927,178.734317 C118.610893,176.32823 118.221315,174.672302 117.670523,173.766481 C117.012261,172.733279 115.910695,172.216686 114.365793,172.216686 L112.0283,172.216686 L111.846943,178.734317 Z M143.318114,198.269705 L143.318114,167.103964 L148.819281,167.103964 C152.500179,167.103964 155.15334,168.710356 156.778846,171.923189 C157.826693,173.97544 158.350608,176.353184 158.350608,179.056493 C158.350608,182.934538 157.705789,185.878411 156.416132,187.888201 C155.287682,189.614922 153.856989,190.47827 152.124012,190.47827 C150.740317,190.47827 149.484263,189.93337 148.355813,188.843554 L148.355813,198.269705 L143.318114,198.269705 Z M148.315512,171.349977 L148.315512,180.967199 C148.315512,182.467465 148.550602,183.62803 149.020789,184.44893 C149.464109,185.255677 150.014892,185.659044 150.673155,185.659044 C151.358285,185.659044 151.949369,185.202602 152.446425,184.289705 C152.94348,183.376807 153.192004,182.078247 153.192004,180.393987 C153.192004,177.266074 152.805785,174.969712 152.033334,173.504829 C151.260882,172.039947 150.189542,171.307517 148.819281,171.307517 C148.590905,171.335824 148.422983,171.349977 148.315512,171.349977 L148.315512,171.349977 Z M169.965527,166.403371 C167.130968,166.403371 164.900968,167.882385 163.275463,170.840456 C161.649957,173.826834 160.837216,177.740204 160.837216,182.580684 C160.837216,187.591005 161.62309,191.575142 163.19486,194.533213 C164.739762,197.491284 166.996628,198.970297 169.965527,198.970297 C172.988162,198.970297 175.352498,197.420518 177.058608,194.320912 C178.684113,191.362841 179.496854,187.435318 179.496854,182.538224 C179.496854,177.697744 178.657246,173.798527 176.978004,170.840456 C175.298763,167.882385 172.961294,166.403371 169.965527,166.403371 L169.965527,166.403371 Z M165.4719,182.623144 C165.4719,179.198009 165.854761,176.416898 166.620495,174.279727 C167.359361,172.128403 168.474361,171.052756 169.965527,171.052756 C171.617901,171.052756 172.813503,172.142556 173.552369,174.322187 C174.210632,176.232903 174.539758,178.971554 174.539758,182.538224 C174.539758,185.977512 174.156897,188.801083 173.391163,191.009022 C172.625428,193.21696 171.483561,194.320912 169.965527,194.320912 C168.501229,194.320912 167.386229,193.202807 166.620495,190.966561 C165.854761,188.730316 165.4719,185.949205 165.4719,182.623144 L165.4719,182.623144 Z M187.726439,182.792985 C187.726439,186.090739 188.633216,188.78693 190.446797,190.881641 C192.394717,193.117886 195.128481,194.235992 198.648171,194.235992 L198.648171,199.225058 C193.529843,199.225058 189.513158,197.661126 186.597994,194.533213 C183.817171,191.546835 182.42678,187.647618 182.42678,182.835445 C182.42678,177.85343 183.709701,173.94006 186.275582,171.095217 C189.083273,167.967304 193.180561,166.403371 198.567568,166.403371 L198.567568,171.392438 C194.967274,171.392438 192.220076,172.49639 190.325892,174.704328 C188.592915,176.699965 187.726439,179.396157 187.726439,182.792985 L187.726439,182.792985 Z M206.676248,182.792985 C206.676248,186.090739 207.583025,188.78693 209.396606,190.881641 C211.344526,193.117886 214.07829,194.235992 217.59798,194.235992 L217.59798,199.225058 C212.479652,199.225058 208.462967,197.661126 205.547803,194.533213 C202.76698,191.546835 201.376589,187.647618 201.376589,182.835445 C201.376589,177.85343 202.65951,173.94006 205.225391,171.095217 C208.033082,167.967304 212.13037,166.403371 217.517377,166.403371 L217.517377,171.392438 C213.917083,171.392438 211.169885,172.49639 209.275701,174.704328 C207.542724,176.699965 206.676248,179.396157 206.676248,182.792985 L206.676248,182.792985 Z M239.3689,166 L240.6384,198.269705 L235.681304,198.269705 L234.855122,177.103326 L226.532843,185.446743 L226.573144,198.269705 L221.616048,198.269705 L221.616048,167.103964 L226.573144,167.103964 L226.573144,178.610661 L239.3689,166 Z M263.39671,166 L264.66621,198.269705 L259.709114,198.269705 L258.882931,177.103326 L250.560652,185.446743 L250.600954,198.269705 L245.643858,198.269705 L245.643858,167.103964 L250.600954,167.103964 L250.600954,178.610661 L263.39671,166 Z"
          id="ПОЧТА-2" sketch:type="MSShapeGroup"></path>
      </g>
    </g>
  </g>
</svg>
