<?xml version="1.0" encoding="UTF-8"?>
<svg width="52px" height="19px" viewBox="0 0 52 19" version="1.1" xmlns="http://www.w3.org/2000/svg"
>
    <!-- Generator: sketchtool 51.2 (57519) - http://www.bohemiancoding.com/sketch -->
    <title>3457F6C3-92FB-4853-A765-285A00499D5C</title>
    <desc>Created with sketchtool.</desc>
    <defs></defs>
    <g id="Прием-с-магистрали" stroke="none" stroke-width="1" fill="none" fill-rule="evenodd">
        <g id="Получен-сигнал-от-весов" transform="translate(-1022.000000, -191.000000)" fill="#333333">
            <g id="Group-5" transform="translate(140.000000, 168.000000)">
                <g id="Group-3" transform="translate(21.000000, 12.000000)">
                    <g id="barcode" transform="translate(861.000000, 11.000000)">
                        <g id="Group-3"
                           transform="translate(26.000000, 9.500000) rotate(90.000000) translate(-26.000000, -9.500000) translate(16.500000, -16.500000)">
                            <path d="M12.103389,24.2449693 L12.103389,32.982367 C12.103389,33.4707092 12.1021514,33.4719362 11.6021611,33.4719362 C10.2593654,33.4731631 8.9153321,33.4621202 7.57253638,33.4792981 C7.22600845,33.4842061 7.12328767,33.3725499 7.12328767,33.0326736 C7.13195087,27.1578442 7.13195087,21.2842417 7.12328767,15.4094123 C7.12328767,15.069536 7.22848365,14.9554259 7.57748678,14.9591069 C8.9326585,14.9762847 10.2890678,14.9787387 11.6454771,14.9591069 C12.0167571,14.9529719 12.1108146,15.0854869 12.109577,15.4339521 C12.0984386,18.3701398 12.103389,21.3075546 12.103389,24.2449693 L12.103389,24.2449693 Z"
                                  id="Shape"
                                  transform="translate(9.616438, 24.219178) rotate(-270.000000) translate(-9.616438, -24.219178) "></path>
                            <path d="M11.3892872,9.97236886 C11.3892872,12.8953127 11.3826552,15.8194831 11.3972457,18.7412003 C11.3985722,19.1067216 11.3097023,19.2465519 10.8865757,19.2318329 C10.0535867,19.202395 9.21927122,19.2232468 8.38495577,19.2220203 C7.84377818,19.2220203 7.84245176,19.2207937 7.84245176,18.6958168 L7.84245176,4.88818837 C7.84245176,3.65547392 7.85173667,2.42398605 7.83581968,1.19249818 C7.83051402,0.849055349 7.92734236,0.701865564 8.33189914,0.712904797 C9.19141649,0.737436428 10.0535867,0.736209847 10.9144304,0.712904797 C11.2898061,0.703092145 11.3972457,0.820843973 11.3959193,1.16183364 C11.3839816,4.10072302 11.3892872,7.03715923 11.3892872,9.97236886 L11.3892872,9.97236886 Z"
                                  id="Shape"
                                  transform="translate(9.616438, 9.972603) rotate(-270.000000) translate(-9.616438, -9.972603) "></path>
                            <path d="M11.3879633,37.0464923 C11.3879633,39.9700397 11.3813308,42.894814 11.3972487,45.8171346 C11.3985752,46.1962265 11.2858234,46.3127758 10.8759372,46.3005075 C10.0031051,46.274744 9.12762011,46.282105 8.25346157,46.2980538 C7.93377688,46.3029612 7.83561644,46.1962265 7.83561644,45.9079203 C7.8422489,39.9982569 7.8422489,34.0873667 7.83561644,28.1777033 C7.83561644,27.8918508 7.93775636,27.7789819 8.25611455,27.7838893 C9.14353802,27.7986113 10.032288,27.8047455 10.9197114,27.7814356 C11.3070473,27.7703941 11.3945958,27.9077996 11.3932693,28.2378182 C11.3839838,31.1736339 11.3879633,34.1106765 11.3879633,37.0464923 L11.3879633,37.0464923 Z"
                                  id="Shape"
                                  transform="translate(9.616438, 37.041096) rotate(-270.000000) translate(-9.616438, -37.041096) "></path>
                            <path d="M7.84361496,47.0398249 L7.84361496,38.2677885 C7.84361496,37.7597981 7.84494095,37.7597981 8.40848545,37.7585711 C9.25579118,37.7585711 10.1030969,37.7696144 10.9504026,37.753663 C11.2845514,37.7475278 11.3972603,37.8591876 11.3972603,38.164718 C11.3919563,44.0630505 11.3919563,49.9601559 11.3972603,55.8572613 C11.3972603,56.1578836 11.3017892,56.2781326 10.9610105,56.2719974 C10.0871851,56.254819 9.21335959,56.2511379 8.33953412,56.2732244 C7.95367189,56.2842677 7.83300706,56.1750621 7.83565904,55.8118612 C7.85024489,52.8866221 7.84361496,49.9626099 7.84361496,47.0398249 L7.84361496,47.0398249 Z"
                                  id="Shape"
                                  transform="translate(9.616438, 47.013699) rotate(-270.000000) translate(-9.616438, -47.013699) "></path>
                            <path d="M8.55222562,5.68015864 L8.55222562,-3.05396557 C8.55222562,-3.55582801 8.55329279,-3.55705505 8.97696112,-3.5582821 C9.20426931,-3.55950915 9.43157751,-3.54846572 9.6588857,-3.5607362 C9.87658932,-3.57177962 9.98970983,-3.4834322 9.97050069,-3.21961699 C9.96516482,-3.14476709 9.97050069,-3.06991719 9.97050069,-2.99506729 L9.97050069,14.3983312 C9.97050069,14.9492756 9.97050069,14.9492756 9.49454081,14.9492756 C9.29924785,14.9505026 9.10288772,14.9308699 8.91079629,14.9541838 C8.61839044,14.987314 8.54688974,14.8462036 8.54795692,14.5259442 C8.55756149,11.8755215 8.55329279,9.22632596 8.55329279,6.57590332 C8.55222562,6.27773078 8.55222562,5.97955823 8.55222562,5.68015864 L8.55222562,5.68015864 Z"
                                  id="Shape"
                                  transform="translate(9.260274, 5.698630) rotate(-270.000000) translate(-9.260274, -5.698630) "></path>
                            <path d="M9.96828017,19.2578938 L9.96828017,27.9994236 C9.96828017,28.4903828 9.96720953,28.4903828 9.53680934,28.4916102 C9.298055,28.4928376 9.05823002,28.4854732 8.82054633,28.4928376 C8.62997112,28.4989746 8.53361287,28.4155115 8.54967258,28.1872155 C8.55502582,28.1123442 8.54967258,28.0374729 8.54967258,27.9626016 L8.54967258,10.5163641 C8.54967258,9.97876372 8.54967258,9.97876372 9.01433348,9.97876372 C9.2209684,9.97876372 9.42760332,9.9922651 9.63316759,9.97508153 C9.89119357,9.95298836 9.97470406,10.078183 9.97256276,10.3666215 C9.96399758,11.6234773 9.96935082,12.8815604 9.96935082,14.1396435 C9.96828017,15.8457269 9.96828017,17.5518104 9.96828017,19.2578938 L9.96828017,19.2578938 Z"
                                  id="Shape"
                                  transform="translate(9.260274, 19.232877) rotate(-270.000000) translate(-9.260274, -19.232877) "></path>
                            <path d="M9.96934989,32.7571452 L9.96934989,41.534937 C9.96934989,42.0246376 9.96720865,42.0246376 9.53574772,42.0258649 C9.29699886,42.0270922 9.05825001,42.0197283 8.81950116,42.0270922 C8.62785971,42.0332288 8.53364491,41.9473164 8.54970425,41.7202623 C8.55505736,41.6453957 8.54970425,41.5705292 8.54970425,41.4956627 L8.54970425,24.050538 C8.54970425,23.5141992 8.55077487,23.5141992 9.01542511,23.5129719 C9.22205528,23.5129719 9.42868545,23.5264724 9.634245,23.50929 C9.89333568,23.4871982 9.974703,23.6148395 9.97256176,23.9020323 C9.96399678,25.2214012 9.96934989,26.5407701 9.96934989,27.8613662 C9.96934989,29.494929 9.96934989,31.1260371 9.96934989,32.7571452 L9.96934989,32.7571452 Z"
                                  id="Shape"
                                  transform="translate(9.260274, 32.767123) rotate(-270.000000) translate(-9.260274, -32.767123) "></path>
                            <path d="M9.96725254,51.2781972 L9.96725254,60.0549366 C9.96725254,60.5407612 9.96619041,60.5407612 9.53603132,60.5407612 C9.28855708,60.541988 9.03789648,60.5628441 8.7936086,60.5272661 C8.70757678,60.5137709 8.62048284,60.3739124 8.56525254,60.2696318 C8.53126466,60.2046099 8.55781769,60.0991025 8.55781769,60.0119976 L8.55781769,42.5689333 C8.55781769,42.0364893 8.55887981,42.0364893 9.02196466,42.0352624 C9.21633284,42.0352624 9.41176314,42.052438 9.60400708,42.0315819 C9.89184193,42.0009112 9.97468738,42.1383161 9.97256314,42.4609723 C9.96194193,44.0791607 9.96831466,45.6985758 9.96831466,47.3167642 C9.96725254,48.6392866 9.96725254,49.9581285 9.96725254,51.2781972 L9.96725254,51.2781972 Z"
                                  id="Shape"
                                  transform="translate(9.260274, 51.287671) rotate(-270.000000) translate(-9.260274, -51.287671) "></path>
                            <path d="M8.54902286,16.4099517 L8.54902286,7.6281491 C8.54902286,7.12717378 8.55225582,7.12471802 8.9833171,7.12349014 C9.19130417,7.12226226 9.39929124,7.12717378 9.60620065,7.12349014 C9.84975027,7.11857862 9.97368039,7.24627821 9.97152509,7.526235 C9.97152509,7.61341453 9.97260274,7.70182194 9.97260274,7.78900146 L9.97260274,25.0910681 C9.97260274,25.6436144 9.97260274,25.6436144 9.48119288,25.6436144 C8.54794521,25.6460701 8.54794521,25.6460701 8.54794521,24.5950043 C8.54902286,21.8654255 8.54902286,19.1370747 8.54902286,16.4099517 L8.54902286,16.4099517 Z"
                                  id="Shape"
                                  transform="translate(9.260274, 16.383562) rotate(-270.000000) translate(-9.260274, -16.383562) "></path>
                            <path d="M8.54901949,29.1938052 L8.54901949,20.4463833 C8.54901949,19.9503195 8.55331661,19.9466358 8.98625173,19.9454079 C9.19358791,19.9441801 9.40092408,19.9490916 9.60826026,19.9454079 C9.84889914,19.9417243 9.97781282,20.0632845 9.97244142,20.3469249 C9.97029286,20.4341045 9.97244142,20.5225119 9.97244142,20.6084635 L9.97244142,37.9178974 C9.97244142,38.4655322 9.97244142,38.4655322 9.48042086,38.4655322 C8.54794521,38.4679879 8.54794521,38.4679879 8.54794521,37.4169221 C8.54901949,34.6762924 8.54901949,31.9356627 8.54901949,29.1938052 L8.54901949,29.1938052 Z"
                                  id="Shape"
                                  transform="translate(9.260274, 29.205479) rotate(-270.000000) translate(-9.260274, -29.205479) "></path>
                            <path d="M9.97017019,0.742488203 L9.97017019,9.4811779 C9.97017019,9.96979809 9.96787071,9.96979809 9.50107739,9.97102578 C9.2791781,9.97225347 9.05842855,9.96365965 8.83652926,9.97225347 C8.6249776,9.9796196 8.54104678,9.87035529 8.54909494,9.65550973 C8.55254415,9.55606693 8.54794521,9.45662412 8.54794521,9.35718132 L8.54794521,-7.93358936 C8.54794521,-8.54620613 8.54909494,-8.55111689 9.12741278,-8.54497844 C10.080545,-8.53515693 9.96787071,-8.68861804 9.96902045,-7.66104242 C9.97246966,-4.86068401 9.97017019,-2.0590979 9.97017019,0.742488203 L9.97017019,0.742488203 Z"
                                  id="Shape"
                                  transform="translate(9.260274, 0.712329) rotate(-270.000000) translate(-9.260274, -0.712329) "></path>
                            <path d="M9.9681221,41.3011956 L9.9681221,50.0784755 C9.9681221,50.5720363 9.9658315,50.5720363 9.50541931,50.5744918 C8.54794521,50.5806307 8.54794521,50.5806307 8.54794521,49.5566761 L8.54794521,32.6380977 C8.54794521,32.0573657 8.54909051,32.0499991 9.08509276,32.0573657 C10.0975415,32.0708711 9.9658315,31.8977565 9.9681221,33.0076545 C9.97155802,35.7738052 9.9681221,38.5387282 9.9681221,41.3011956 L9.9681221,41.3011956 Z"
                                  id="Shape"
                                  transform="translate(9.260274, 41.315068) rotate(-270.000000) translate(-9.260274, -41.315068) "></path>
                        </g>
                    </g>
                </g>
            </g>
        </g>
    </g>
</svg>